{"title":"Live.PD.S02E80.720p.WEB.h264-TBS","magnet":"magnet:?xt=urn:btih:befb51b285b1fe50e505f22d57695605537522bc&dn=Live.PD.S02E80.720p.WEB.h264-TBS&tr=udp%3A%2F%2Ftracker.leechers-paradise.org%3A6969&tr=udp%3A%2F%2Fzer0day.ch%3A1337&tr=udp%3A%2F%2Fopen.demonii.com%3A1337&tr=udp%3A%2F%2Ftracker.coppersurfer.tk%3A6969&tr=udp%3A%2F%2Fexodus.desync.com%3A6969","uploader":"mocioni","categoryP":"video","categoryS":"hd___tv_shows","size":"2591534607","seeders":"0","leechers":"0","description":" <a href=\"https://www.imdb.com/title/tt6225166/\" rel=\"nofollow\" target=\"_NEW\">https://www.imdb.com/title/tt6225166/</a>\r\n\r\nVideo\r\nID : 1\r\nFormat : AVC\r\nFormat/Info : Advanced Video Codec\r\nFormat profile : Main@L3.1\r\nFormat settings : CABAC / 4 Ref Frames\r\nFormat settings, CABAC : Yes\r\nFormat settings, RefFrames : 4 frames\r\nCodec ID : V_MPEG4/ISO/AVC\r\nDuration : 2 h 11 min\r\nBit rate : 2 497 kb/s\r\nWidth : 1 280 pixels\r\nHeight : 720 pixels\r\nDisplay aspect ratio : 16:9\r\nFrame rate mode : Constant\r\nFrame rate : 29.970 (30000/1001) FPS\r\nColor space : YUV\r\nChroma subsampling : 4:2:0\r\nBit depth : 8 bits\r\nScan type : Progressive\r\nBits/(Pixel*Frame) : 0.090\r\nStream size : 2.29 GiB (95%)\r\nWriting library : Zencoder Video Encoding System\r\nDefault : Yes\r\nForced : No\r\n\r\nAudio\r\nID : 2\r\nFormat : AAC\r\nFormat/Info : Advanced Audio Codec\r\nFormat profile : LC\r\nCodec ID : A_AAC-2\r\nDuration : 2 h 11 min\r\nBit rate : 128 kb/s\r\nChannel(s) : 2 channels\r\nChannel positions : Front: L R\r\nSampling rate : 48.0 kHz\r\nFrame rate : 46.875 FPS (1024 SPF)\r\nCompression mode : Lossy\r\nStream size : 120 MiB (5%)\r\nDefault : Yes\r\nForced : No","last_updated":"2018-08-26T12:01:33.632Z","parsed":{"xt":"urn:btih:befb51b285b1fe50e505f22d57695605537522bc","dn":"Live.PD.S02E80.720p.WEB.h264-TBS","tr":["udp://exodus.desync.com:6969","udp://open.demonii.com:1337","udp://tracker.coppersurfer.tk:6969","udp://tracker.leechers-paradise.org:6969","udp://zer0day.ch:1337"],"infoHash":"befb51b285b1fe50e505f22d57695605537522bc","infoHashBuffer":{"type":"Buffer","data":[190,251,81,178,133,177,254,80,229,5,242,45,87,105,86,5,83,117,34,188]},"name":"Live.PD.S02E80.720p.WEB.h264-TBS","announce":["udp://exodus.desync.com:6969","udp://open.demonii.com:1337","udp://tracker.coppersurfer.tk:6969","udp://tracker.leechers-paradise.org:6969","udp://zer0day.ch:1337"],"urlList":[]}}